<?xml version="1.0" encoding="UTF-8" standalone="no"?>
<!DOCTYPE svg PUBLIC "-//W3C//DTD SVG 1.1//EN"
 "http://www.w3.org/Graphics/SVG/1.1/DTD/svg11.dtd">
<!-- Generated by graphviz version 2.40.1 (20161225.0304)
 -->
<!-- Title: dependencies Pages: 1 -->
<svg width="980pt" height="396pt"
 viewBox="0.00 0.00 980.00 395.59" xmlns="http://www.w3.org/2000/svg" xmlns:xlink="http://www.w3.org/1999/xlink">
<g id="graph0" class="graph" transform="scale(1 1) rotate(0) translate(4 391.5901)">
<title>dependencies</title>
<polygon fill="#ffffff" stroke="transparent" points="-4,4 -4,-391.5901 976,-391.5901 976,4 -4,4"/>
<text text-anchor="start" x="465.0091" y="-42.4" font-family="sans-serif" font-weight="bold" font-size="14.00" fill="#000000">Legend</text>
<polygon fill="#ffffb3" stroke="transparent" points="252,-10 252,-30 272,-30 272,-10 252,-10"/>
<text text-anchor="start" x="275.629" y="-15.4" font-family="sans-serif" font-size="14.00" fill="#000000"> &#160;Declarations</text>
<polygon fill="#8dd3c7" stroke="transparent" points="365,-10 365,-30 385,-30 385,-10 365,-10"/>
<text text-anchor="start" x="388.7251" y="-15.4" font-family="sans-serif" font-size="14.00" fill="#000000"> &#160;Module</text>
<polygon fill="#80b1d3" stroke="transparent" points="451,-10 451,-30 471,-30 471,-10 451,-10"/>
<text text-anchor="start" x="474.7812" y="-15.4" font-family="sans-serif" font-size="14.00" fill="#000000"> &#160;Bootstrap</text>
<polygon fill="#fdb462" stroke="transparent" points="548,-10 548,-30 568,-30 568,-10 548,-10"/>
<text text-anchor="start" x="571.6732" y="-15.4" font-family="sans-serif" font-size="14.00" fill="#000000"> &#160;Providers</text>
<polygon fill="#fb8072" stroke="transparent" points="644,-10 644,-30 664,-30 664,-10 644,-10"/>
<text text-anchor="start" x="667.7258" y="-15.4" font-family="sans-serif" font-size="14.00" fill="#000000"> &#160;Exports</text>
<g id="clust1" class="cluster">
<title>cluster_MatSelectCountryModule</title>
<polygon fill="none" stroke="#000000" stroke-dasharray="1,5" points="8,-70 8,-379.5901 964,-379.5901 964,-70 8,-70"/>
</g>
<g id="clust2" class="cluster">
<title>cluster_MatSelectCountryModule_declarations</title>
<polygon fill="none" stroke="#000000" points="386,-189.5901 386,-241.5901 586,-241.5901 586,-189.5901 386,-189.5901"/>
</g>
<g id="clust3" class="cluster">
<title>cluster_MatSelectCountryModule_MatSelectCountryComponent_providers</title>
<polygon fill="none" stroke="#000000" points="16,-78 16,-176.5901 956,-176.5901 956,-78 16,-78"/>
</g>
<g id="clust5" class="cluster">
<title>cluster_MatSelectCountryModule_exports</title>
<polygon fill="none" stroke="#000000" points="384,-319.5901 384,-371.5901 588,-371.5901 588,-319.5901 384,-319.5901"/>
</g>
<!-- MatSelectCountryComponent -->
<g id="node1" class="node">
<title>MatSelectCountryComponent</title>
<polygon fill="#ffffb3" stroke="#000000" points="577.9776,-233.5901 394.0224,-233.5901 394.0224,-197.5901 577.9776,-197.5901 577.9776,-233.5901"/>
<text text-anchor="middle" x="486" y="-211.3901" font-family="Times,serif" font-size="14.00" fill="#000000">MatSelectCountryComponent</text>
</g>
<!-- MatSelectCountryModule -->
<g id="node2" class="node">
<title>MatSelectCountryModule</title>
<polygon fill="#8dd3c7" stroke="#000000" points="567.1951,-298.5901 564.1951,-302.5901 543.1951,-302.5901 540.1951,-298.5901 404.8049,-298.5901 404.8049,-262.5901 567.1951,-262.5901 567.1951,-298.5901"/>
<text text-anchor="middle" x="486" y="-276.3901" font-family="Times,serif" font-size="14.00" fill="#000000">MatSelectCountryModule</text>
</g>
<!-- MatSelectCountryComponent&#45;&gt;MatSelectCountryModule -->
<g id="edge1" class="edge">
<title>MatSelectCountryComponent&#45;&gt;MatSelectCountryModule</title>
<path fill="none" stroke="#000000" d="M486,-233.6962C486,-233.6962 486,-252.581 486,-252.581"/>
<polygon fill="#000000" stroke="#000000" points="482.5001,-252.581 486,-262.581 489.5001,-252.5811 482.5001,-252.581"/>
</g>
<!-- MatSelectCountryComponent  -->
<g id="node4" class="node">
<title>MatSelectCountryComponent </title>
<polygon fill="#fb8072" stroke="#000000" points="579.9782,-363.5901 392.0218,-363.5901 392.0218,-327.5901 579.9782,-327.5901 579.9782,-363.5901"/>
<text text-anchor="middle" x="486" y="-341.3901" font-family="Times,serif" font-size="14.00" fill="#000000">MatSelectCountryComponent </text>
</g>
<!-- MatSelectCountryModule&#45;&gt;MatSelectCountryComponent  -->
<g id="edge3" class="edge">
<title>MatSelectCountryModule&#45;&gt;MatSelectCountryComponent </title>
<path fill="none" stroke="#000000" stroke-dasharray="5,2" d="M486,-298.6962C486,-298.6962 486,-317.581 486,-317.581"/>
<polygon fill="#000000" stroke="#000000" points="482.5001,-317.581 486,-327.581 489.5001,-317.5811 482.5001,-317.581"/>
</g>
<!-- {
 &#160;&#160;&#160;provide: NG_VALUE_ACCESSOR, useExisting: forwardRef(() =&gt; MatSelectCountryComponent), multi: true
} -->
<g id="node3" class="node">
<title>{
 &#160;&#160;&#160;provide: NG_VALUE_ACCESSOR, useExisting: forwardRef(() =&gt; MatSelectCountryComponent), multi: true
}</title>
<ellipse fill="#fdb462" stroke="#000000" cx="486" cy="-127.295" rx="462.1843" ry="41.0911"/>
<text text-anchor="middle" x="486" y="-139.895" font-family="Times,serif" font-size="14.00" fill="#000000">{</text>
<text text-anchor="middle" x="486" y="-123.095" font-family="Times,serif" font-size="14.00" fill="#000000"> &#160;&#160;&#160;provide: NG_VALUE_ACCESSOR, useExisting: forwardRef(() =&gt; MatSelectCountryComponent), multi: true</text>
<text text-anchor="middle" x="486" y="-106.295" font-family="Times,serif" font-size="14.00" fill="#000000">}</text>
</g>
<!-- {
 &#160;&#160;&#160;provide: NG_VALUE_ACCESSOR, useExisting: forwardRef(() =&gt; MatSelectCountryComponent), multi: true
}&#45;&gt;MatSelectCountryComponent -->
<g id="edge2" class="edge">
<title>{
 &#160;&#160;&#160;provide: NG_VALUE_ACCESSOR, useExisting: forwardRef(() =&gt; MatSelectCountryComponent), multi: true
}&#45;&gt;MatSelectCountryComponent</title>
<path fill="none" stroke="#000000" d="M486,-168.5989C486,-168.5989 486,-187.2551 486,-187.2551"/>
<polygon fill="#000000" stroke="#000000" points="482.5001,-187.255 486,-197.2551 489.5001,-187.2551 482.5001,-187.255"/>
</g>
</g>
</svg>
